<svg xmlns="http://www.w3.org/2000/svg" viewBox="0 0 900 700"><rect width="900" height="700" fill="#d9d0bd"/><path d="M0 700V260L150 80l150 180V90l150-70 150 70v170L750 80l150 180v440z" fill="#263b32"/><path d="M120 700V310q105-160 210 0v390m120 0V310q105-160 210 0v390" fill="#f1e6cb"/><path d="M180 700V385m90-110v425m270 0V385m90-110v425" stroke="#b89557" stroke-width="24"/><circle cx="450" cy="150" r="45" fill="#b89557"/><path d="m450 110 16 29 33 4-24 24 6 34-31-15-31 15 6-34-24-24 33-4z" fill="#f5eedc"/></svg>
