<svg xmlns="http://www.w3.org/2000/svg" viewBox="0 0 900 1200"><defs><linearGradient id="a" x2="0" y2="1"><stop stop-color="#c9b88e"/><stop offset="1" stop-color="#66583b"/></linearGradient></defs><rect width="900" height="1200" fill="#283b32"/><circle cx="720" cy="180" r="270" fill="#b89557" opacity=".28"/><path d="M170 130h560v910H170z" rx="45" fill="url(#a)"/><path d="M210 180h480v810H210z" fill="#eee2bd"/><g fill="#463d2a" opacity=".7"><path d="M270 300h360v10H270zm0 55h360v10H270zm0 55h360v10H270zm0 55h360v10H270zm0 55h360v10H270zm0 55h360v10H270zm0 55h360v10H270zm0 55h360v10H270z"/></g><path d="M135 105v960m630-960v960" stroke="#b89557" stroke-width="34"/><circle cx="135" cy="105" r="46" fill="#d4bd87"/><circle cx="765" cy="105" r="46" fill="#d4bd87"/></svg>
